<!DOCTYPE svg PUBLIC "-//W3C//DTD SVG 1.1//EN" "http://www.w3.org/Graphics/SVG/1.1/DTD/svg11.dtd">
<!-- Uploaded to: SVG Repo, www.svgrepo.com, Transformed by: SVG Repo Mixer Tools -->
<svg fill="#ffff" version="1.1" id="Capa_1" xmlns="http://www.w3.org/2000/svg" xmlns:xlink="http://www.w3.org/1999/xlink" width="256px" height="256px" viewBox="-280 -280 1360.00 1360.00" xml:space="preserve" stroke="#ffff">
<g id="SVGRepo_bgCarrier" stroke-width="0">
<rect x="-280" y="-280" width="1360.00" height="1360.00" rx="680" fill="#6fba94" strokewidth="0"/>
</g>
<g id="SVGRepo_tracerCarrier" stroke-linecap="round" stroke-linejoin="round"/>
<g id="SVGRepo_iconCarrier"> <g> <path d="M125.66,84.744C125.66,37.912,163.506,0,210.275,0c46.77,0,84.618,37.912,84.618,84.744s-37.848,84.765-84.618,84.765 C163.506,169.509,125.66,131.576,125.66,84.744z M599.791,169.509c46.77,0,84.618-37.933,84.618-84.765S646.561,0,599.791,0 c-46.769,0-84.617,37.912-84.617,84.744S553.021,169.509,599.791,169.509z M687.348,496.788l16.958,261.806 c1.384,21.44-14.818,39.932-36.25,41.319c-0.842,0.063-1.708,0.087-2.55,0.087c-20.305,0-37.394-15.799-38.711-36.372 l-17.411-268.923c-2.853-0.348-5.64-0.868-8.555-0.868c-2.506,0-5.357,0.737-8.23,1.519L573.782,761.48 c-1.47,20.483-18.514,36.133-38.712,36.133c-0.932,0-1.857-0.023-2.809-0.087c-21.388-1.521-37.48-20.116-35.989-41.56 l23.892-337.933c0.087-1.455,0.454-2.802,0.713-4.211c2.744-64.193,5.898-126.932,7.193-152.409 c-33.269,22.916-67.507,70.074-89.909,166.188c-0.043,0.152-0.13,0.283-0.173,0.436c-0.734,2.93-1.923,5.665-3.479,8.225 c-0.303,0.499-0.604,0.979-0.951,1.454c-1.599,2.365-3.5,4.491-5.725,6.293c-0.389,0.307-0.799,0.542-1.188,0.848 c-2.204,1.627-4.646,2.994-7.28,3.992c-0.238,0.087-0.454,0.217-0.691,0.304c-1.943,0.674-3.997,1.149-6.113,1.413 c-1.166,0.148-2.354,0.235-3.521,0.235c-0.021,0-0.021,0-0.043,0h-0.021c-0.021,0-0.021,0-0.044,0 c-0.043,0-0.063-0.021-0.106-0.021c-2.184-0.022-4.407-0.261-6.654-0.781c-1.015-0.238-1.942-0.672-2.916-0.997 c-0.54-0.196-1.059-0.327-1.577-0.545c-2.938-1.193-5.552-2.82-7.862-4.774c-0.411-0.324-0.756-0.628-1.103-0.975 c-2.311-2.15-4.255-4.602-5.811-7.336c-0.216-0.391-0.39-0.781-0.583-1.172c-1.469-2.951-2.506-6.119-2.938-9.439 c-0.021-0.152-0.107-0.261-0.13-0.39c-11.428-94.924-56.534-139.737-97.471-161.07c2.938,35.396,33.009,495.292,33.009,495.292 c1.382,21.44-14.819,39.931-36.249,41.319c-0.843,0.063-1.707,0.087-2.549,0.087c-20.306,0-37.394-15.799-38.711-36.372 l-17.434-268.923c-2.809-0.349-5.617-0.868-8.533-0.868c-2.463,0-5.336,0.737-8.23,1.519L184.267,761.48 c-1.447,20.483-18.513,36.133-38.711,36.133c-0.929,0-1.836-0.023-2.786-0.087c-21.409-1.521-37.502-20.116-36.012-41.56 l23.892-337.933c0.108-1.455,0.476-2.802,0.713-4.188c2.139-49.764,4.494-98.504,6.071-129.841 c-14.862,28.039-22.834,69.661-30.568,125.456c-3.542,25.348-7.172,51.585-12.768,74.956c-3.261,13.76-15.554,23.025-29.098,23.025 c-2.312,0-4.666-0.282-7.021-0.848c-16.072-3.841-26.009-20.03-22.143-36.175c4.904-20.531,8.188-44.185,11.665-69.229 c2.333-16.841,4.667-33.681,7.669-50.413c5.098-28.581,11.882-57.227,23.893-83.767c11.211-24.85,28.904-49.74,50.355-66.819 c5.617-4.428,11.968-7.942,18.514-10.83c17.087-7.487,35.903-10.829,54.438-11.457L174.977,407.81l36.076,37.021l31.518-37.021 l-21.818-229.688c14.495,0.998,28.969,3.667,42.708,8.441c42.557,14.8,85.481,43.381,114.817,78.277 c13.652,16.254,24.625,34.245,33.439,53.298c7.713-16.928,16.226-33.464,26.745-48.827c27.068-39.519,67.163-71.768,113.629-85.179 c12.896-3.71,26.355-5.555,39.749-6.033l-27.349,229.709l36.076,37.021l31.518-37.021l-21.817-229.667 c34.479,2.367,59.666,14.063,85.61,36.719c7.886,6.881,15.144,14.454,21.841,22.483c15.661,18.772,28.343,39.931,39.187,61.806 C787.476,360.829,724.222,462.088,687.348,496.788z M681.405,405.947c17.37-31.034,28.992-65.648,21.841-80.1 c-10.735-21.638-21.063-37.782-30.912-49.914C674.991,308.464,679.072,361.459,681.405,405.947z"/> </g> </g>
</svg>