<!DOCTYPE svg PUBLIC "-//W3C//DTD SVG 1.1//EN" "http://www.w3.org/Graphics/SVG/1.1/DTD/svg11.dtd">
<!-- Uploaded to: SVG Repo, www.svgrepo.com, Transformed by: SVG Repo Mixer Tools -->
<svg fill="#ffff" height="256px" width="256px" version="1.1" id="Capa_1" xmlns="http://www.w3.org/2000/svg" xmlns:xlink="http://www.w3.org/1999/xlink" viewBox="-117.02 -117.02 568.39 568.39" xml:space="preserve" stroke="#ffff">
<g id="SVGRepo_bgCarrier" stroke-width="0">
<rect x="-117.02" y="-117.02" width="568.39" height="568.39" rx="284.195" fill="#6fba94" strokewidth="0"/>
</g>
<g id="SVGRepo_tracerCarrier" stroke-linecap="round" stroke-linejoin="round"/>
<g id="SVGRepo_iconCarrier"> <path d="M298.454,0H35.897c-10.34,0-18.722,8.382-18.722,18.721c0,43.123,14.479,82.991,40.769,112.257 c23.465,26.119,55.111,42.227,90.51,46.421v119.511h-30.421c-10.34,0-18.722,8.382-18.722,18.722 c0,10.339,8.382,18.721,18.722,18.721h98.285c10.34,0,18.722-8.382,18.722-18.721c0-10.34-8.382-18.722-18.722-18.722h-30.421 V177.398c35.398-4.193,67.044-20.302,90.51-46.421c26.289-29.266,40.769-69.134,40.769-112.257C317.176,8.382,308.794,0,298.454,0z"/> </g>
</svg>