<!DOCTYPE svg PUBLIC "-//W3C//DTD SVG 1.1//EN" "http://www.w3.org/Graphics/SVG/1.1/DTD/svg11.dtd">
<!-- Uploaded to: SVG Repo, www.svgrepo.com, Transformed by: SVG Repo Mixer Tools -->
<svg fill="#ffff" version="1.1" id="Capa_1" xmlns="http://www.w3.org/2000/svg" xmlns:xlink="http://www.w3.org/1999/xlink" width="256px" height="256px" viewBox="-37.12 -37.12 180.30 180.30" xml:space="preserve" stroke="#ffff">
<g id="SVGRepo_bgCarrier" stroke-width="0">
<rect x="-37.12" y="-37.12" width="180.30" height="180.30" rx="90.15" fill="#6fba94" strokewidth="0"/>
</g>
<g id="SVGRepo_tracerCarrier" stroke-linecap="round" stroke-linejoin="round"/>
<g id="SVGRepo_iconCarrier"> <g> <path d="M15.516,15.511C-5.172,36.199-5.17,69.857,15.518,90.546c20.682,20.686,54.341,20.686,75.027-0.004 c20.687-20.685,20.685-54.341,0.002-75.023C69.859-5.172,36.2-5.172,15.516,15.511z M84.757,84.757 c-17.494,17.494-45.96,17.496-63.455,0.004c-17.498-17.498-17.496-45.967,0-63.461C38.797,3.807,67.261,3.805,84.759,21.301 C102.253,38.795,102.251,67.264,84.757,84.757z M33.241,38.67c0-3.424,2.777-6.201,6.201-6.201c3.423,0,6.2,2.777,6.2,6.201 c0,3.426-2.777,6.203-6.2,6.203C36.018,44.873,33.241,42.095,33.241,38.67z M73.76,38.67c0,3.426-2.776,6.203-6.201,6.203 c-3.423,0-6.202-2.777-6.202-6.203c0-3.424,2.779-6.201,6.202-6.201C70.984,32.468,73.76,35.246,73.76,38.67z M53.09,78.697 c-9.08,4.867-19.354-5.771-23.064-14.703c-0.636-1.528,0.089-3.284,1.62-3.922c0.376-0.155,0.766-0.229,1.15-0.229 c1.176,0.002,2.292,0.696,2.771,1.852c2.777,6.685,7.463,7.92,18.522,10.004C54.089,71.697,63.28,73.236,53.09,78.697z"/> </g> </g>
</svg>