<!DOCTYPE svg PUBLIC "-//W3C//DTD SVG 1.1//EN" "http://www.w3.org/Graphics/SVG/1.1/DTD/svg11.dtd">
<!-- Uploaded to: SVG Repo, www.svgrepo.com, Transformed by: SVG Repo Mixer Tools -->
<svg width="256px" height="256px" viewBox="-22.4 -22.4 108.80 108.80" xmlns="http://www.w3.org/2000/svg" xmlns:xlink="http://www.w3.org/1999/xlink" aria-hidden="true" role="img" class="iconify iconify--emojione-monotone" preserveAspectRatio="xMidYMid meet" fill="#000000">
<g id="SVGRepo_bgCarrier" stroke-width="0">
<rect x="-22.4" y="-22.4" width="108.80" height="108.80" rx="54.4" fill="#6fba94" strokewidth="0"/>
</g>
<g id="SVGRepo_tracerCarrier" stroke-linecap="round" stroke-linejoin="round"/>
<g id="SVGRepo_iconCarrier">
<path d="M17.718 7h-.002c-6.814 0-12.18 3.957-14.723 10.855c-5.788 15.71 15.227 29.479 24.2 35.357c1.445.946 3.082 2.019 3.404 2.354L31.851 57l1.397-1.292c.232-.204 1.305-.891 2.342-1.555c8.605-5.508 31.459-20.141 25.402-36.318c-2.566-6.857-7.941-10.79-14.742-10.79c-5.744 0-11.426 2.763-14.313 6.554C28.955 9.75 23.345 7 17.718 7" fill="#ffff"/>
</g>
</svg>